<svg width="140" height="120" viewBox="0 0 140 118" fill="none" xmlns="http://www.w3.org/2000/svg">
<ellipse cx="69.7417" cy="48.7391" rx="49.0775" ry="48.7391" fill="#769AC1"/>
<path d="M57.9909 68.0299C57.9323 68.0593 57.8736 68.0739 57.8149 68.0739C57.7563 68.0739 57.6389 68.0739 57.4629 68.0739C57.0523 68.0739 56.5683 68.0006 56.0109 67.8539C55.4829 67.7366 54.9549 67.5753 54.4269 67.3699C53.9283 67.1939 53.4883 66.9886 53.1069 66.7539C52.7549 66.5193 52.5349 66.3139 52.4469 66.1379C52.4176 65.7273 52.4029 65.3019 52.4029 64.8619C52.4029 64.4219 52.4029 63.9966 52.4029 63.5859C52.4029 60.3006 52.6376 56.8686 53.1069 53.2899C53.6056 49.7113 54.4123 45.8393 55.5269 41.6739C55.6443 41.2633 55.7616 40.7499 55.8789 40.1339C56.0256 39.4886 56.1723 38.7993 56.3189 38.0659C55.6149 38.6233 54.7789 39.5179 53.8109 40.7499C52.8429 41.9526 51.8163 43.3899 50.7309 45.0619C49.6749 46.7046 48.6043 48.5233 47.5189 50.5179C46.4629 52.4833 45.4949 54.4926 44.6149 56.5459C43.7349 58.5699 42.9723 60.5793 42.3269 62.5739C41.7109 64.5686 41.3296 66.4166 41.1829 68.1179C39.7749 67.7073 38.7923 67.2966 38.2349 66.8859C37.7069 66.4753 37.4429 65.9766 37.4429 65.3899C37.4429 64.8619 37.6043 64.1139 37.9269 63.1459C38.2496 62.1779 38.7043 61.0339 39.2909 59.7139C39.8776 58.3939 40.5963 56.9273 41.4469 55.3139C42.2976 53.6713 43.2363 51.9113 44.2629 50.0339C45.4363 47.8926 46.5803 45.8833 47.6949 44.0059C48.8389 42.1286 49.9536 40.4273 51.0389 38.9019C52.1243 37.3766 53.1803 36.0566 54.2069 34.9419C55.2629 33.8273 56.3043 32.9766 57.3309 32.3899C57.7416 32.3899 58.2843 32.4926 58.9589 32.6979C59.6629 32.9033 60.3376 33.1526 60.9829 33.4459C61.6576 33.7393 62.2443 34.0473 62.7429 34.3699C63.2709 34.6633 63.5643 34.9126 63.6229 35.1179C63.2123 35.9393 62.7283 37.1713 62.1709 38.8139C61.6136 40.4566 61.0416 42.3193 60.4549 44.4019C59.8976 46.4846 59.3549 48.6993 58.8269 51.0459C58.3283 53.3633 57.9323 55.5926 57.6389 57.7339C58.3136 56.1206 59.0909 54.4486 59.9709 52.7179C60.8803 50.9579 61.8336 49.2273 62.8309 47.5259C63.8283 45.7953 64.8403 44.1233 65.8669 42.5099C66.9229 40.8966 67.9496 39.4299 68.9469 38.1099C69.9443 36.7606 70.8683 35.5873 71.7189 34.5899C72.5989 33.5926 73.3763 32.8593 74.0509 32.3899C74.4616 32.3899 75.0043 32.4926 75.6789 32.6979C76.3829 32.9033 77.0576 33.1526 77.7029 33.4459C78.3776 33.7393 78.9643 34.0473 79.4629 34.3699C79.9909 34.6633 80.2843 34.9126 80.3429 35.1179C79.4043 36.7899 78.5829 38.8286 77.8789 41.2339C77.1749 43.6393 76.5736 46.1619 76.0749 48.8019C75.6056 51.4419 75.2389 54.0673 74.9749 56.6779C74.7403 59.2593 74.6229 61.5766 74.6229 63.6299C74.6229 64.3046 74.6229 65.0086 74.6229 65.7419C74.6229 66.4753 74.6523 67.2379 74.7109 68.0299C74.3003 68.0299 73.8016 67.9713 73.2149 67.8539C72.6576 67.7659 72.1003 67.6339 71.5429 67.4579C71.0149 67.2819 70.5309 67.0766 70.0909 66.8419C69.6509 66.6366 69.3429 66.4019 69.1669 66.1379C69.1376 65.7273 69.1229 65.3019 69.1229 64.8619C69.1229 64.4219 69.1229 63.9966 69.1229 63.5859C69.1229 60.3006 69.3576 56.8686 69.8269 53.2899C70.3256 49.7113 71.1323 45.8393 72.2469 41.6739C72.3643 41.2633 72.4963 40.7059 72.6429 40.0019C72.7896 39.2979 72.9363 38.5646 73.0829 37.8019C72.2616 38.2126 71.3229 39.0046 70.2669 40.1779C69.2403 41.3219 68.1843 42.7299 67.0989 44.4019C66.0429 46.0446 64.9869 47.8779 63.9309 49.9019C62.9043 51.9259 61.9656 53.9939 61.1149 56.1059C60.2936 58.1886 59.5896 60.2713 59.0029 62.3539C58.4456 64.4073 58.1083 66.2993 57.9909 68.0299ZM81.809 77.4899C81.0757 77.1966 80.6357 76.6393 80.489 75.8179C80.3717 75.0259 79.873 74.3806 78.993 73.8819C79.2277 72.3859 79.4917 70.8753 79.785 69.3499C80.0784 67.8246 80.445 66.0939 80.885 64.1579C81.3544 62.1926 81.9264 59.9193 82.601 57.3379C83.305 54.7273 84.185 51.5739 85.241 47.8779C84.273 47.8779 83.5104 47.8926 82.953 47.9219C82.3957 47.9513 81.853 48.0099 81.325 48.0979C81.2077 47.9806 81.105 47.8193 81.017 47.6139C80.9584 47.4086 80.929 47.2179 80.929 47.0419C81.2224 46.9246 81.8237 46.7779 82.733 46.6019C83.6424 46.3966 84.6397 46.2206 85.725 46.0739C86.429 43.8446 87.2357 41.8499 88.145 40.0899C89.0544 38.3006 90.037 36.7753 91.093 35.5139C92.149 34.2526 93.2637 33.2846 94.437 32.6099C95.6104 31.9353 96.7984 31.5979 98.001 31.5979C98.353 31.5979 98.6904 31.6273 99.013 31.6859C99.3357 31.7153 99.585 31.7299 99.761 31.7299C100.025 31.5246 100.377 31.3486 100.817 31.2019C101.257 31.0259 101.638 30.9379 101.961 30.9379C102.313 30.9379 102.768 31.1286 103.325 31.5099C103.09 31.9206 102.841 32.4779 102.577 33.1819C102.313 33.8859 102.093 34.5753 101.917 35.2499C101.184 37.4206 100.406 38.8286 99.585 39.4739C99.2624 39.4739 99.0864 39.0486 99.057 38.1979C99.0277 37.5819 98.9397 36.9806 98.793 36.3939C98.6757 36.1299 98.5877 35.8953 98.529 35.6899C98.4997 35.4846 98.485 35.2206 98.485 34.8979C98.485 34.7219 98.4997 34.5166 98.529 34.2819C98.5584 34.0179 98.617 33.5926 98.705 33.0059C98.2064 33.0059 97.649 33.3139 97.033 33.9299C96.4464 34.5459 95.8157 35.4259 95.141 36.5699C94.4957 37.6846 93.8357 39.0193 93.161 40.5739C92.4864 42.1286 91.841 43.8446 91.225 45.7219L94.921 45.5899C95.0677 45.7366 95.185 46.0739 95.273 46.6019C95.3904 47.1006 95.4637 47.6286 95.493 48.1859L90.653 47.9219C89.5384 51.2366 88.497 54.4046 87.529 57.4259C86.561 60.4473 85.6957 63.2339 84.933 65.7859C84.1704 68.3379 83.5104 70.6113 82.953 72.6059C82.425 74.6299 82.0437 76.2579 81.809 77.4899Z" fill="#AEB7C1"/>
<path d="M41.0307 101.408C42.4247 101.408 43.5127 101.816 44.2947 102.632C45.0767 103.437 45.4677 104.599 45.4677 106.117V113.478H43.2577V106.202C43.2577 105.262 43.0083 104.553 42.5097 104.077C42.0223 103.59 41.382 103.346 40.5887 103.346C39.7047 103.346 38.9963 103.596 38.4637 104.094C37.9423 104.593 37.6817 105.358 37.6817 106.389V113.478H35.4717V106.202C35.4717 105.25 35.2393 104.536 34.7747 104.06C34.3213 103.584 33.698 103.346 32.9047 103.346C32.0093 103.346 31.2897 103.601 30.7457 104.111C30.213 104.61 29.9467 105.369 29.9467 106.389V113.478H27.7367V101.578H29.8787V103.142C30.2413 102.587 30.7343 102.162 31.3577 101.867C31.981 101.561 32.7007 101.408 33.5167 101.408C34.3553 101.408 35.0863 101.567 35.7097 101.884C36.333 102.202 36.8033 102.649 37.1207 103.227C37.5173 102.649 38.0557 102.202 38.7357 101.884C39.427 101.567 40.192 101.408 41.0307 101.408ZM57.14 104.4V112.101C57.14 115.297 55.5704 116.895 52.431 116.895C51.6037 116.895 50.8104 116.782 50.051 116.555C49.303 116.34 48.6854 116.023 48.198 115.603L49.15 114.005C49.5354 114.334 50.0057 114.595 50.561 114.787C51.1164 114.98 51.7 115.076 52.312 115.076C53.2414 115.076 53.9214 114.85 54.352 114.396C54.794 113.954 55.015 113.269 55.015 112.339V111.914C54.675 112.288 54.2614 112.577 53.774 112.781C53.2867 112.974 52.7597 113.07 52.193 113.07C50.9804 113.07 50.0227 112.736 49.32 112.067C48.6287 111.399 48.283 110.396 48.283 109.058V104.4H50.408V108.786C50.408 109.591 50.5894 110.197 50.952 110.605C51.326 111.002 51.853 111.2 52.533 111.2C53.2924 111.2 53.893 110.968 54.335 110.503C54.7884 110.039 55.015 109.364 55.015 108.48V104.4H57.14ZM65.3283 103.346C64.3083 103.346 63.5377 103.573 63.0163 104.026C62.495 104.48 62.2343 105.148 62.2343 106.032V107.052H67.4193V108.922H62.2343V113.478H60.0243V106.032C60.0243 104.593 60.4833 103.465 61.4013 102.649C62.3307 101.822 63.6057 101.408 65.2263 101.408C65.9063 101.408 66.541 101.482 67.1303 101.629C67.7197 101.777 68.2353 101.992 68.6773 102.275L67.9803 104.077C67.2777 103.59 66.3937 103.346 65.3283 103.346ZM71.9893 105.726C72.6013 104.774 73.6779 104.298 75.2193 104.298V106.321C75.0379 106.287 74.8736 106.27 74.7263 106.27C73.8989 106.27 73.2529 106.514 72.7883 107.001C72.3236 107.477 72.0913 108.169 72.0913 109.075V113.478H69.9663V104.4H71.9893V105.726ZM81.2569 111.795C82.2429 111.795 83.0646 111.467 83.7219 110.809L84.8439 112.118C84.4473 112.606 83.9373 112.974 83.3139 113.223C82.6906 113.473 81.9879 113.597 81.2059 113.597C80.2086 113.597 79.3303 113.399 78.5709 113.002C77.8116 112.606 77.2223 112.056 76.8029 111.353C76.3949 110.639 76.1909 109.835 76.1909 108.939C76.1909 108.055 76.3893 107.262 76.7859 106.559C77.1939 105.845 77.7493 105.29 78.4519 104.893C79.1659 104.497 79.9706 104.298 80.8659 104.298C81.7159 104.298 82.4866 104.485 83.1779 104.859C83.8806 105.222 84.4359 105.749 84.8439 106.44C85.2519 107.12 85.4559 107.919 85.4559 108.837L78.5029 110.197C78.7183 110.719 79.0639 111.115 79.5399 111.387C80.0159 111.659 80.5883 111.795 81.2569 111.795ZM80.8659 105.998C80.0839 105.998 79.4493 106.253 78.9619 106.763C78.4859 107.273 78.2479 107.959 78.2479 108.82V108.837L83.3819 107.851C83.2346 107.296 82.9343 106.848 82.4809 106.508C82.0389 106.168 81.5006 105.998 80.8659 105.998ZM91.8155 111.795C92.8015 111.795 93.6232 111.467 94.2805 110.809L95.4025 112.118C95.0058 112.606 94.4958 112.974 93.8725 113.223C93.2492 113.473 92.5465 113.597 91.7645 113.597C90.7672 113.597 89.8888 113.399 89.1295 113.002C88.3702 112.606 87.7808 112.056 87.3615 111.353C86.9535 110.639 86.7495 109.835 86.7495 108.939C86.7495 108.055 86.9478 107.262 87.3445 106.559C87.7525 105.845 88.3078 105.29 89.0105 104.893C89.7245 104.497 90.5292 104.298 91.4245 104.298C92.2745 104.298 93.0452 104.485 93.7365 104.859C94.4392 105.222 94.9945 105.749 95.4025 106.44C95.8105 107.12 96.0145 107.919 96.0145 108.837L89.0615 110.197C89.2768 110.719 89.6225 111.115 90.0985 111.387C90.5745 111.659 91.1468 111.795 91.8155 111.795ZM91.4245 105.998C90.6425 105.998 90.0078 106.253 89.5205 106.763C89.0445 107.273 88.8065 107.959 88.8065 108.82V108.837L93.9405 107.851C93.7932 107.296 93.4928 106.848 93.0395 106.508C92.5975 106.168 92.0592 105.998 91.4245 105.998ZM101.048 113.597C100.107 113.597 99.3708 113.342 98.8381 112.832C98.3168 112.311 98.0561 111.58 98.0561 110.639V100.864H100.181V110.486C100.181 111.393 100.606 111.846 101.456 111.846C101.739 111.846 101.994 111.79 102.221 111.676L102.323 113.376C101.926 113.524 101.501 113.597 101.048 113.597ZM112.475 104.4V113.478H110.452V112.305C110.101 112.736 109.664 113.059 109.143 113.274C108.633 113.49 108.066 113.597 107.443 113.597C106.559 113.597 105.766 113.405 105.063 113.019C104.372 112.634 103.828 112.09 103.431 111.387C103.046 110.685 102.853 109.869 102.853 108.939C102.853 108.01 103.046 107.2 103.431 106.508C103.828 105.806 104.372 105.262 105.063 104.876C105.766 104.491 106.559 104.298 107.443 104.298C108.032 104.298 108.571 104.4 109.058 104.604C109.557 104.808 109.987 105.109 110.35 105.505V104.4H112.475ZM107.681 111.778C108.463 111.778 109.109 111.518 109.619 110.996C110.129 110.475 110.384 109.789 110.384 108.939C110.384 108.089 110.129 107.404 109.619 106.882C109.109 106.361 108.463 106.1 107.681 106.1C106.899 106.1 106.253 106.361 105.743 106.882C105.244 107.404 104.995 108.089 104.995 108.939C104.995 109.789 105.244 110.475 105.743 110.996C106.253 111.518 106.899 111.778 107.681 111.778Z" fill="black" fill-opacity="0.7"/>
</svg>
